
<svg width="155px" height="39px" viewBox="0 0 155 39" version="1.1" xmlns="http://www.w3.org/2000/svg" xmlns:xlink="http://www.w3.org/1999/xlink">
    <defs>
        <linearGradient x1="3.03557611%" y1="48.7756625%" x2="100%" y2="52.0897893%" id="linearGradient-1">
            <stop stop-color="#FC4E36" offset="0%"></stop>
            <stop stop-color="#FC4E36" offset="65.8783784%"></stop>
            <stop stop-color="#FF8C31" offset="100%"></stop>
        </linearGradient>
        <linearGradient x1="15.3456362%" y1="10.047332%" x2="30.114035%" y2="94.8159646%" id="linearGradient-2">
            <stop stop-color="#DE124C" offset="0%"></stop>
            <stop stop-color="#FC4E36" offset="35.0547754%"></stop>
            <stop stop-color="#FC4E36" offset="65.8783784%"></stop>
            <stop stop-color="#FF8C31" offset="100%"></stop>
        </linearGradient>
        <path d="M0.834629035,5.21487071 L0.951019905,5.22324633 C1.02874837,5.23450801 1.1063961,5.25731392 1.18186415,5.29279427 L1.2931691,5.35566189 L15.8650558,15.0571211 L15.9434726,15.1186837 C16.2070394,15.3616785 16.2070264,15.7837407 15.9433034,16.0267355 L15.8648405,16.0882981 L13.5364042,17.6378621 L13.4438897,17.6886324 C13.2845062,17.7591466 13.1022143,17.7591466 12.9428308,17.6886324 L12.8503163,17.6378621 L4.8504067,12.3136307 L4.76643214,12.2663383 C4.39436887,12.0924311 3.95152731,12.3314427 3.89413538,12.7393209 L3.88790311,12.8292192 L3.88790311,38.181103 L3.88076242,38.2772337 C3.81976286,38.6813327 3.37955158,38.9171806 3.00954911,38.7440214 L2.9256148,38.6966915 L1.72006345,37.894354 L1.53495071,37.7631113 C0.632085953,37.0823004 0.0730148429,36.0386976 0.00665776961,34.9098834 L0,34.6830666 L0,6.04863864 C0,5.55909868 0.40192221,5.21487071 0.834629035,5.21487071 Z M8.07008992,18.8115525 L8.15680284,18.817883 C8.24365703,18.8304969 8.33035985,18.862304 8.41173456,18.9163924 L8.41173456,18.9163924 L11.0598573,20.6795112 L11.1401745,20.7431465 C11.2639339,20.859142 11.3358424,21.022304 11.3358424,21.1948844 L11.3358424,21.1948844 L11.3358424,36.4179842 L11.3273739,36.5201012 C11.2994128,36.6874093 11.2035547,36.8377744 11.0598573,36.9335726 L11.0598573,36.9335726 L8.41173456,38.6964762 L8.32771975,38.7438061 C7.92890551,38.9302852 7.4490157,38.642413 7.4490157,38.1808877 L7.4490157,38.1808877 L7.4490157,19.4319809 C7.4490157,19.0677321 7.74803549,18.8115525 8.07008992,18.8115525 L8.07008992,18.8115525 Z M30.6705181,19.4132518 L30.7575676,19.4194921 C31.0125574,19.4561418 31.2360074,19.6512832 31.2825149,19.9267623 L31.291377,20.0336802 L31.291377,21.398106 L31.2847214,21.6249249 C31.2183854,22.7537602 30.6594832,23.7975319 29.7566394,24.4783638 L29.5715289,24.6096087 L15.860535,33.7380004 L15.7765202,33.7852901 C15.4042935,33.9591739 14.9614411,33.7199974 14.9040484,33.3120973 L14.8978161,33.2221967 L14.898462,30.1196242 L14.9069465,30.0175081 C14.9293552,29.8836656 14.9952818,29.7606826 15.0943292,29.6678863 L15.1746624,29.604251 L30.3290887,19.5180917 C30.4373731,19.4459739 30.5553449,19.4132518 30.6705181,19.4132518 Z M5.33176614,9.09494702e-13 L5.57856633,0.00911398477 C6.15350808,0.0487822469 6.71984022,0.21714601 7.23279281,0.511673037 L7.44923098,0.645615805 L28.8505661,14.8831773 L28.9429944,14.954075 C29.3149207,15.2822303 29.315084,15.8692301 28.9432042,16.1975471 L28.8507814,16.268485 L15.8596739,24.9157326 L15.7756993,24.9630249 C15.403636,25.1369312 14.9607945,24.897908 14.9034026,24.4898648 L14.8971703,24.3999288 L14.8978161,21.2952035 L14.9062857,21.1930127 C14.9286585,21.0591104 14.9945014,20.9362112 15.0936086,20.8434507 L15.1740165,20.7798303 L22.2239086,16.0878675 L22.3023714,16.0263508 C22.5660934,15.7835101 22.5660934,15.361448 22.3023714,15.118299 L22.2239086,15.0566906 L2.56373412,1.96935425 L2.48600601,1.90852146 C2.20106364,1.64725643 2.22708047,1.18298955 2.53951867,0.955096851 L2.62358113,0.903302407 L3.54582792,0.428186007 L3.78448227,0.315353857 C4.18672081,0.141745173 4.61015754,0.0402825369 5.03666966,0.00978914226 L5.29280099,9.09494702e-13 L5.33176614,9.09494702e-13 Z" id="path-3"></path>
    </defs>
    <g id="Symbols" stroke="none" stroke-width="1" fill="none" fill-rule="evenodd">
        <g id="Nav_menu" transform="translate(-22.000000, -34.000000)">
            <g id="Logo" transform="translate(22.000000, 34.000000)">
                <path d="M125.157973,12.8701864 C125.255386,12.8701864 125.337401,12.9359655 125.362033,13.0256642 L125.369591,13.082019 L125.369591,20.6363051 C125.369591,21.7657607 126.245491,22.6905705 127.355033,22.7688537 L127.507722,22.7742213 L127.77768,22.7742213 C128.906929,22.7742213 129.831927,21.8985183 129.910227,20.7889931 L129.915596,20.6363051 L129.915596,13.0818037 C129.915596,12.9842114 129.981375,12.902167 130.071074,12.8775297 L130.127428,12.8699711 L133.286619,12.8699711 C133.384032,12.8699711 133.466046,12.9357502 133.490678,13.025449 L133.498236,13.0818037 L133.498236,20.4490141 C133.498236,23.7367249 130.774982,26.4003475 127.465528,26.3021812 C124.354575,26.2098724 121.903304,23.6349233 121.790974,20.5460642 L121.78695,20.324584 L121.78695,13.082019 C121.78695,12.9844267 121.85273,12.9023823 121.942304,12.877745 L121.998568,12.8701864 L125.157973,12.8701864 Z M117.574689,12.5648374 C118.025264,12.5648374 118.488971,12.6145664 118.956122,12.7127328 C119.034483,12.7290938 119.094933,12.7889925 119.115978,12.8635507 L119.124038,12.9217668 L119.124038,16.1138945 C119.124038,16.2648037 118.971192,16.3651228 118.831477,16.3078591 C118.43386,16.145325 118.007181,16.0605058 117.574689,16.0605058 C115.738592,16.0605058 114.244784,17.5543131 114.244784,19.3904109 C114.244784,21.2265086 115.738592,22.7203159 117.574689,22.7203159 C118.035382,22.7203159 118.497151,22.6187052 118.926199,22.4249559 C119.004904,22.389306 119.094631,22.4018782 119.156803,22.4551773 L119.197663,22.5026709 L120.841303,25.1165645 C120.906532,25.2198975 120.871872,25.3589665 120.764019,25.4162301 C119.778911,25.9404297 118.683151,26.2159843 117.574689,26.2159843 C113.811216,26.2159843 110.749116,23.1540991 110.749116,19.3904109 C110.749116,15.6269379 113.811216,12.5648374 117.574689,12.5648374 Z M142.583185,12.8904655 C145.212578,12.8904655 147.455119,14.9310764 147.554577,17.5585325 C147.656309,20.2501357 145.554226,22.4845437 142.912326,22.5973591 L142.702664,22.6018275 L139.662737,22.6018275 L139.662737,25.8277537 C139.662737,25.925346 139.596808,26.0073904 139.50706,26.0320277 L139.450689,26.0395863 L136.248228,26.039371 C136.150815,26.039371 136.0688,25.9735919 136.044168,25.8838932 L136.03661,25.8275384 L136.035965,13.1022981 C136.035965,13.0047058 136.101744,12.9226614 136.191318,12.8980241 L136.247582,12.8904655 L142.583185,12.8904655 Z M94.7922661,12.8905946 C94.8896789,12.8905946 94.971843,12.9565232 94.9965251,13.0461472 L95.0040987,13.1024272 L95.0040987,15.7524874 C95.0040987,15.8499003 94.9381701,15.9319149 94.8485461,15.9565471 L94.7922661,15.9641048 L89.0801054,15.9632437 L89.0803207,18.0006254 L93.7979015,18.0006254 L93.7979015,20.9288236 L89.0811818,20.9288236 L89.0816124,22.965129 L94.7922661,22.965129 C94.8896789,22.965129 94.971843,23.0310576 94.9965251,23.1206816 L95.0040987,23.1769616 L95.0040987,25.8270218 C95.0040987,25.924614 94.9381701,26.0066585 94.8485461,26.0312957 L94.7922661,26.0388544 L85.6363188,26.0390696 C85.538906,26.0390696 85.4568914,25.9732905 85.4322591,25.8835918 L85.4247015,25.827237 L85.4247015,13.102212 C85.4247015,13.0046197 85.4904806,12.9225752 85.5800548,12.897938 L85.6363188,12.8903794 L94.7922661,12.8905946 Z M78.5214561,12.8904655 C81.1508497,12.8904655 83.3933905,14.9310764 83.4926332,17.5585325 C83.5943654,20.2501357 81.4924863,22.4845437 78.8503976,22.5973591 L78.6407196,22.6018275 L75.601008,22.6018275 L75.601008,25.8277537 C75.601008,25.925346 75.5350794,26.0073904 75.4454554,26.0320277 L75.3891754,26.0395863 L72.186499,26.039371 C72.0889068,26.039371 72.0070118,25.9735919 71.9824244,25.8838932 L71.9748817,25.8275384 L71.9744512,13.1022981 C71.9744512,13.0047058 72.0402303,12.9226614 72.1298044,12.8980241 L72.1860685,12.8904655 L78.5214561,12.8904655 Z M50.7313662,12.8904655 C53.3609751,12.8904655 55.6033006,14.9310764 55.7027586,17.5587478 C55.8044908,20.2501412 53.7022029,22.4845438 51.0602923,22.5973591 L50.8506297,22.6018275 L47.810918,22.6018275 L47.810918,25.8277537 C47.810918,25.925346 47.7449895,26.0073904 47.6553654,26.0320277 L47.5990855,26.0395863 L44.3964091,26.039371 C44.2988169,26.039371 44.2167724,25.9735919 44.1921351,25.8838932 L44.1845765,25.8275384 L44.184146,13.1022981 C44.184146,13.0047058 44.2499251,12.9226614 44.3396238,12.8980241 L44.3959786,12.8904655 L50.7313662,12.8904655 Z M69.4809856,18.2370792 L69.4851814,18.4602634 L69.4851814,25.8272586 C69.4851814,25.9246714 69.4192528,26.0068355 69.3296288,26.0315176 L69.2733488,26.0390912 L66.1141584,26.0393064 C66.0165662,26.0393064 65.9345217,25.9733779 65.9098844,25.8837538 L65.9023258,25.8274739 L65.9023258,22.5864782 L61.3565361,22.5864782 L61.3565361,25.8276891 C61.3565361,25.925102 61.2906075,26.007266 61.2008589,26.0319482 L61.1444882,26.0395217 L57.9857284,26.0395217 C57.8883156,26.0395217 57.806002,25.9735931 57.7812701,25.8839691 L57.7736805,25.8276891 L57.7736805,18.5846935 C57.7736805,15.3985935 60.2672343,12.7018182 63.4520427,12.6070963 C66.6860712,12.5109507 69.3610654,15.0526903 69.4809856,18.2370792 Z M151.901817,21.8860529 C152.500502,21.8860529 153.013292,22.0886286 153.426409,22.488398 C153.838664,22.8873063 154.047698,23.3845963 154.047698,23.9664901 C154.047698,24.5430019 153.838664,25.0377085 153.426409,25.4372627 C153.013292,25.8370322 152.500072,26.0396078 151.901817,26.0396078 C151.303132,26.0396078 150.790342,25.8370322 150.377225,25.4372627 C149.96497,25.0377085 149.75572,24.5430019 149.75572,23.9664901 C149.75572,23.3845963 149.96497,22.8873063 150.377225,22.488398 C150.790342,22.0886286 151.303132,21.8860529 151.901817,21.8860529 Z M103.921325,12.8763864 C106.24072,12.8763864 108.326108,14.418631 108.87528,16.6721509 C109.352079,18.6288915 108.592595,20.5756508 107.04146,21.6923657 L106.858996,21.8174871 L106.712607,21.9130701 L106.799579,22.0648404 C107.626028,23.5084882 108.157762,24.4628112 108.550212,25.1676282 C108.656559,25.3583637 108.751281,25.5288631 108.837607,25.6832167 C108.906926,25.8067857 108.837136,25.9549131 108.710153,25.9900142 L108.652468,25.9977365 L104.919565,25.9970906 C104.861763,25.9970906 104.807231,25.9734774 104.767865,25.9330625 L104.733996,25.8872993 L102.921579,22.5877483 L101.121432,22.5877483 L101.121217,25.8138899 C101.121217,25.9307853 101.026926,26.0257225 100.91003,26.0257225 C100.48166,26.025907 100.002835,26.0258938 99.5222936,26.0258015 L97.7064927,26.0252919 C97.6089005,26.0252919 97.527155,25.9601108 97.5026174,25.870736 L97.4950907,25.8145357 L97.4946601,13.088219 C97.4946601,12.9906267 97.5604392,12.9085822 97.650138,12.883945 L97.7064927,12.8763864 L103.921325,12.8763864 Z M151.901817,22.2948639 C151.420027,22.2948639 151.012508,22.4552453 150.690668,22.7714873 C150.368614,23.0877292 150.205649,23.4898667 150.205649,23.9664901 C150.205649,24.4379468 150.370121,24.8375009 150.694974,25.1537429 C151.019612,25.4702001 151.425409,25.6305815 151.901817,25.6305815 C152.37801,25.6305815 152.784022,25.4702001 153.108445,25.1537429 C153.433298,24.8375009 153.597769,24.4379468 153.597769,23.9664901 C153.597769,23.4902973 153.434805,23.0883751 153.112966,22.7714873 C152.790911,22.4552453 152.383392,22.2948639 151.901817,22.2948639 Z M151.150651,22.9885296 L152.106911,22.9885296 C152.440199,22.9885296 152.717266,23.2351196 152.764888,23.5553988 L152.772117,23.6535203 L152.772117,23.6840897 C152.772117,23.8772854 152.688766,24.0578281 152.545651,24.1832851 L152.469223,24.2412266 L152.434778,24.2638307 L152.45523,24.2995667 C152.573847,24.5062326 152.650486,24.6440099 152.705812,24.7430374 L152.734309,24.7943271 L152.734309,24.7943271 L152.759416,24.8388356 L152.192376,24.8386204 L151.923495,24.3490804 L151.637823,24.3490804 L151.637823,24.8427106 L151.151081,24.8427106 L151.150651,22.9885296 L152.106911,22.9885296 Z M151.980329,23.3749518 L151.641482,23.3749518 L151.641482,23.9626581 L151.980329,23.9626581 C152.142217,23.9626581 152.273966,23.8309086 152.273966,23.668805 C152.273966,23.5067014 152.142217,23.3749518 151.980329,23.3749518 Z M141.928743,15.8186636 L139.685987,15.8186636 L139.685987,19.6734141 L141.928958,19.6734141 C142.991781,19.6734141 143.856333,18.8088615 143.856333,17.7460388 C143.856333,16.6832161 142.991781,15.8186636 141.928743,15.8186636 Z M77.8672292,15.8186636 L75.6242579,15.8186636 L75.6242579,19.6734141 L77.8672292,19.6734141 C78.9300519,19.6734141 79.7943892,18.8088615 79.7943892,17.7460388 C79.7943892,16.6832161 78.9300519,15.8186636 77.8672292,15.8186636 Z M50.0771393,15.8186636 L47.834168,15.8186636 L47.834168,19.6734141 L50.0771393,19.6734141 C51.139962,19.6734141 52.0042993,18.8088615 52.0042993,17.7460388 C52.0042993,16.6832161 51.139962,15.8186636 50.0771393,15.8186636 Z M103.387653,15.8047998 L101.144467,15.8047998 L101.144467,19.6593349 L103.387653,19.6593349 C104.450476,19.6593349 105.314813,18.7947824 105.314813,17.732175 C105.314813,16.6693523 104.450476,15.8047998 103.387653,15.8047998 Z M63.629431,16.1350563 C62.428517,16.1350563 61.4419219,17.0716134 61.3617905,18.2527719 L61.3565361,18.4081664 L61.3565361,19.6582801 L65.9023258,19.6582801 L65.9023258,18.4079511 C65.9023258,17.1548235 64.8827738,16.1350563 63.629431,16.1350563 Z" id="Combined-Shape" fill="url(#linearGradient-1)"></path>
                <mask id="mask-4" fill="white">
                    <use xlink:href="#path-3"></use>
                </mask>
                <use id="Combined-Shape" fill="url(#linearGradient-2)" xlink:href="#path-3"></use>
            </g>
        </g>
    </g>
</svg>