
<?xml version="1.0" encoding="iso-8859-1"?>
<!-- Generator: Adobe Illustrator 19.0.0, SVG Export Plug-In . SVG Version: 6.00 Build 0)  -->
<svg version="1.1" id="Layer_1" xmlns="http://www.w3.org/2000/svg" xmlns:xlink="http://www.w3.org/1999/xlink" x="0px" y="0px"
	 viewBox="0 0 512.001 512.001" style="enable-background:new 0 0 512.001 512.001;" xml:space="preserve">
<g>
	<g>
		<path d="M198.892,449.017v32.875c0,9.275,7.52,16.795,16.795,16.795s16.795-7.52,16.795-16.795v-20.178
			C220.172,457.225,209.309,453.102,198.892,449.017z"/>
	</g>
</g>
<g>
	<g>
		<path d="M293.744,482.778c0.464,8.862,7.774,15.909,16.75,15.909c5.367,0,10.134-2.527,13.209-6.445
			C313.912,489.233,303.898,486.073,293.744,482.778z"/>
	</g>
</g>
<g>
	<g>
		<path d="M482.497,427.72c-33.406-5.996-141.458-34.195-239.854-72.209c-54.741-21.148-97.881-41.899-128.224-61.677
			c-35.046-22.844-42.747-38.101-42.757-42.054c-0.112-43.602,83.846-60.007,127.229-64.396v115.941
			c10.14,4.597,21.304,9.412,33.59,14.428V183.6h61.217v157.339c9.867,3.501,23.549,8.181,37.318,12.694h57.49v17.827
			c11.294,3.308,22.545,6.49,33.59,9.495v-44.117v-55.722v-55.722v-42.886c7.184-2.56,12.335-9.401,12.335-17.464v-29.49
			c0-8.063-5.152-14.904-12.335-17.464V70.207c0-25.541-20.705-46.246-46.246-46.246h-17.981v-0.026
			c0-5.941-4.816-10.757-10.757-10.757h-73.558c-5.941,0-10.757,4.816-10.757,10.757v0.026h-17.662
			c-25.541,0-46.246,20.705-46.246,46.246v45.24c-18.531,1.529-50.808,5.404-83.392,15.045
			c-30.834,9.123-55.938,21.648-74.617,37.226C14.052,190.091-0.084,219.224,0,251.964c0.092,35.608,24.718,68.941,75.286,101.902
			c34.521,22.501,82.137,45.544,141.529,68.49c104.141,40.233,216.178,69.284,253.019,75.897c19.476,3.497,38.1-9.46,41.596-28.936
			C514.929,449.839,501.974,431.216,482.497,427.72z M388.507,320.044H327.29v-22.132h61.217V320.044z M388.507,264.321H327.29
			v-22.132h61.217V264.321z M388.507,208.6H327.29v-25h61.217V208.6z M232.482,70.207c0-6.99,5.667-12.656,12.656-12.656H262.8
			c0,5.941,4.816,10.757,10.757,10.757h73.558c5.941,0,10.757-4.816,10.757-10.757h17.981c6.99,0,12.656,5.667,12.656,12.656v46.794
			H232.482V70.207z"/>
	</g>
</g>
<g>
</g>
<g>
</g>
<g>
</g>
<g>
</g>
<g>
</g>
<g>
</g>
<g>
</g>
<g>
</g>
<g>
</g>
<g>
</g>
<g>
</g>
<g>
</g>
<g>
</g>
<g>
</g>
<g>
</g>
</svg>
